PathFileType	4	(X/Y/Z)	/Users/itak/Documents/Research/Walk-IL/dataset/trc/00172_00008.trc
DataRate	CameraRate	NumFrames	NumMarkers	Units	OrigDataRate	OrigDataStartFrame	OrigNumFrames
100.000000	100.000000	4	53	mm	100.000000	434	579
Frame#	Time	RPSI			LPSI			L3			STRN			T10			C7			CLAV			RBAK			LBAK			LSHO			LUPA			LAEL			LAOL			LWTS			LWPS			LFRA			LIFD			LHPS			LHTS			RSHO			RUPA			RAEL			RAOL			RWTS			RWPS			RFRA			RIFD			RHTS			RHPS			RBHD			LFHD			RFHD			LBHD			LHIP			RHIP			RASI			LASI			LKNE			LTHI			LANK			LTIP			LTOE			LMT1			LMT5			LHEE			RKNE			RANK			RTIP			RTOE			RMT1			RMT5			RHEE			RTHI			
		X1	Y1	Z1	X2	Y2	Z2	X3	Y3	Z3	X4	Y4	Z4	X5	Y5	Z5	X6	Y6	Z6	X7	Y7	Z7	X8	Y8	Z8	X9	Y9	Z9	X10	Y10	Z10	X11	Y11	Z11	X12	Y12	Z12	X13	Y13	Z13	X14	Y14	Z14	X15	Y15	Z15	X16	Y16	Z16	X17	Y17	Z17	X18	Y18	Z18	X19	Y19	Z19	X20	Y20	Z20	X21	Y21	Z21	X22	Y22	Z22	X23	Y23	Z23	X24	Y24	Z24	X25	Y25	Z25	X26	Y26	Z26	X27	Y27	Z27	X28	Y28	Z28	X29	Y29	Z29	X30	Y30	Z30	X31	Y31	Z31	X32	Y32	Z32	X33	Y33	Z33	X34	Y34	Z34	X35	Y35	Z35	X36	Y36	Z36	X37	Y37	Z37	X38	Y38	Z38	X39	Y39	Z39	X40	Y40	Z40	X41	Y41	Z41	X42	Y42	Z42	X43	Y43	Z43	X44	Y44	Z44	X45	Y45	Z45	X46	Y46	Z46	X47	Y47	Z47	X48	Y48	Z48	X49	Y49	Z49	X50	Y50	Z50	X51	Y51	Z51	X52	Y52	Z52	X53	Y53	Z53	

435	4.34	-987.18505859375	1070.475830078125	391.4721984863281	-1004.451293945312	1073.265747070312	270.1282653808594	-990.821044921875	1112.845581054688	333.6510314941406	-719.2413940429688	1301.6962890625	287.7394104003906	-1009.299072265625	1270.843872070312	326.787841796875	-933.17822265625	1536.889038085938	293.2729187011719	-741.9408569335938	1416.325439453125	275.4503784179688	-993.8375854492188	1368.723022460938	417.8869323730469	-954.5105590820312	1505.70654296875	195.2313232421875	-890.7713012695312	1482.67578125	107.7056503295898	-941.689453125	1348.021362304688	50.60408020019531	-942.0000610351562	1130.06591796875	48.54740905761719	-969.13427734375	1119.75390625	132.5482940673828	-816.1683959960938	905.5623168945312	64.66609954833984	-904.3568115234375	877.0284423828125	47.51604080200195	-928.9371337890625	1018.233703613281	39.27919387817383	-778.755126953125	723.4893188476562	82.99752807617188	-876.3894653320312	809.2052612304688	48.42548370361328	-805.6375732421875	827.6358642578125	44.680419921875	-847.8724975585938	1515.831420898438	465.1694030761719	-864.4668579101562	1453.535888671875	540.1400756835938	-888.12841796875	1168.078735351562	610.2801513671875	-903.8478393554688	1155.801147460938	513.4119262695312	-752.5927124023438	939.5244140625	586.1038818359375	-822.262939453125	923.3930053710938	638.7186279296875	-862.595703125	1095.51318359375	628.5065307617188	-739.6681518554688	751.6023559570312	564.769775390625	-725.4558715820312	845.5673217773438	594.88232421875	-794.6895751953125	840.4973754882812	634.6513671875	-864.9496459960938	1695.666015625	353.5682678222656	-732.152099609375	1733.810180664062	185.0907287597656	-702.8902587890625	1745.617919921875	311.2389526367188	-902.2157592773438	1690.81689453125	220.9280700683594	-918.0543823242188	1015.684143066406	138.2101287841797	-828.7155151367188	1012.204223632812	503.2328796386719	-753.3318481445312	1042.163452148438	440.26123046875	-786.0386352539062	1044.766723632812	184.4234924316406	-752.8823852539062	527.0733032226562	129.4039459228516	-797.9292602539062	668.1264038085938	112.7634429931641	-822.8291015625	48.52439880371094	131.5359954833984	-790.8673706054688	294.9743347167969	116.3054962158203	-613.7196655273438	86.70583343505859	100.96337890625	-646.6465454101562	78.12146759033203	160.3054351806641	-726.5657958984375	49.0576057434082	68.23873138427734	-855.5399169921875	49.97504806518555	212.1645660400391	-844.6357421875	512.1051635742188	454.3011474609375	-971.8951416015625	32.99911880493164	429.9436340332031	-844.3555908203125	390.5194702148438	431.9258117675781	-752.03466796875	48.52467346191406	393.3666076660156	-804.591552734375	45.35451889038086	348.6574401855469	-858.0917358398438	31.83282852172852	463.6032104492188	-1020.793151855469	34.97048187255859	362.0106811523438	-787.1636962890625	777.6372680664062	492.5545349121094	
436	4.350000000000001	-989.5734252929688	1070.56689453125	391.7232971191406	-1006.493896484375	1073.494262695312	270.3240356445312	-993.090087890625	1113	333.9867248535156	-721.7446899414062	1302.208618164062	288.935302734375	-1011.843933105469	1270.981323242188	327.5355834960938	-935.9171752929688	1537.155639648438	294.4785766601562	-744.5276489257812	1416.84912109375	276.7254333496094	-996.5093383789062	1368.81201171875	418.8381652832031	-957.2742309570312	1506.255981445312	196.4146881103516	-893.3312377929688	1483.162719726562	108.9158477783203	-944.241943359375	1348.551879882812	51.63164138793945	-944.758056640625	1130.658935546875	49.26111221313477	-971.73876953125	1120.213012695312	133.3063812255859	-819.4430541992188	905.8046875	64.60327911376953	-907.7228393554688	877.5497436523438	47.83810806274414	-931.9610595703125	1018.836547851562	39.78075408935547	-782.5812377929688	723.5783081054688	82.83908081054688	-880.063720703125	809.6041259765625	48.60353088378906	-809.2616577148438	827.801025390625	44.55564880371094	-850.7293701171875	1516.063110351562	466.4371643066406	-867.3887329101562	1453.7734375	541.3656005859375	-891.583984375	1168.509887695312	611.1991577148438	-906.9114990234375	1156.099731445312	514.2855224609375	-758.3634643554688	938.4188232421875	589.048095703125	-828.4774169921875	923.5457153320312	641.4021606445312	-866.755615234375	1096.00146484375	629.8499755859375	-747.8742065429688	750.1403198242188	568.9950561523438	-732.5045776367188	844.115234375	598.576904296875	-802.2408447265625	840.2681884765625	638.0928955078125	-867.787841796875	1695.845581054688	355.4144897460938	-734.8487548828125	1734.547973632812	187.0213317871094	-705.62890625	1745.849365234375	313.2336120605469	-904.9693603515625	1691.462768554688	222.6439666748047	-919.6183471679688	1016.114807128906	138.5927429199219	-831.1519775390625	1012.437377929688	503.8252563476562	-755.63134765625	1042.551513671875	441.0867614746094	-787.8466186523438	1045.254150390625	185.1708221435547	-755.0123901367188	527.0507202148438	129.7220001220703	-799.4153442382812	668.5006103515625	113.3767013549805	-834.86083984375	49.94887924194336	132.5348510742188	-797.5891723632812	295.4309387207031	116.8710479736328	-625.1610717773438	84.41293334960938	101.9484481811523	-658.1068725585938	76.28705596923828	161.2716369628906	-738.6760864257812	48.93243789672852	69.2239990234375	-867.4610595703125	51.8671875	213.2095794677734	-845.8277587890625	512.3309936523438	454.5609436035156	-971.9445190429688	32.95277786254883	429.9846496582031	-845.252197265625	390.7762451171875	432.0819396972656	-752.1475830078125	48.83205032348633	393.4395751953125	-804.740478515625	45.52594757080078	348.7449340820312	-858.1499633789062	31.85596466064453	463.5743713378906	-1020.854064941406	34.87457275390625	362.0798950195312	-789.0057983398438	777.965576171875	492.9634704589844	
437	4.36	-991.8209228515625	1070.606567382812	391.9400939941406	-1008.415283203125	1073.678833007812	270.4931640625	-995.2130126953125	1113.104125976562	334.2744140625	-724.1480102539062	1302.718994140625	290.0717163085938	-1014.285949707031	1271.065795898438	328.1672668457031	-938.60546875	1537.374877929688	295.6089477539062	-747.0277709960938	1417.365234375	277.9527893066406	-999.120849609375	1368.833740234375	419.6803894042969	-959.9703369140625	1506.789428710938	197.5207366943359	-895.7713012695312	1483.666137695312	110.0576629638672	-946.6737060546875	1349.10595703125	52.54365539550781	-947.41796875	1131.27392578125	49.83771133422852	-974.2232666015625	1120.698486328125	133.9334869384766	-822.7490844726562	905.9959716796875	64.35249328613281	-911.1329956054688	878.0748291015625	47.99870300292969	-934.9425659179688	1019.461608886719	40.13491439819336	-786.5712890625	723.5940551757812	82.57186126708984	-883.8225708007812	809.9907836914062	48.64163208007812	-812.9657592773438	827.8915405273438	44.27241897583008	-853.5670166015625	1516.251220703125	467.6457214355469	-870.2738037109375	1453.951293945312	542.5193481445312	-894.9264526367188	1168.897583007812	612.102294921875	-909.9170532226562	1156.344970703125	515.1414794921875	-763.8954467773438	937.39208984375	591.8554077148438	-834.4503173828125	923.718017578125	644.0034790039062	-870.767333984375	1096.459594726562	631.1549072265625	-755.8607788085938	748.769287109375	573.031982421875	-739.3329467773438	842.747314453125	602.0948486328125	-809.5595092773438	840.081298828125	641.418212890625	-870.5697631835938	1695.99951171875	357.1737060546875	-737.5086059570312	1735.251831054688	188.8584594726562	-708.3275146484375	1746.084838867188	315.1244201660156	-907.67919921875	1692.067626953125	224.2959136962891	-921.0252685546875	1016.476867675781	138.9723052978516	-833.47705078125	1012.635192871094	504.3473815917969	-757.8110961914062	1042.906982421875	441.8127136230469	-789.556396484375	1045.692504882812	185.8269500732422	-757.213623046875	526.9168090820312	130.0652160644531	-800.9609375	668.7476196289062	113.965934753418	-847.0097045898438	51.49367904663086	133.4470367431641	-804.4017944335938	295.9053344726562	117.4116897583008	-636.748291015625	82.20671844482422	103.0898132324219	-669.7764892578125	74.55722045898438	162.2649078369141	-750.888671875	48.93054580688477	70.19423675537109	-879.6051025390625	53.89237976074219	214.1103820800781	-846.9349975585938	512.5494995117188	454.756591796875	-971.9771118164062	32.91823959350586	430.0198974609375	-846.0736083984375	391.01220703125	432.1937561035156	-752.2288818359375	49.07809829711914	393.4649047851562	-804.8671875	45.65644454956055	348.7914428710938	-858.1994018554688	31.89412498474121	463.5258178710938	-1020.908935546875	34.80450820922852	362.1300354003906	-790.7037353515625	778.2540893554688	493.2872009277344	
438	4.37	-993.91748046875	1070.602905273438	392.1449584960938	-1010.2216796875	1073.816772460938	270.656494140625	-997.1904296875	1113.15771484375	334.5286560058594	-726.4525146484375	1303.221801757812	291.1431884765625	-1016.611022949219	1271.0947265625	328.6949157714844	-941.2398681640625	1537.546752929688	296.6629028320312	-749.44140625	1417.86572265625	279.1298522949219	-1001.675170898438	1368.78466796875	420.4128112792969	-962.5750732421875	1507.272094726562	198.5518188476562	-898.089111328125	1484.182739257812	111.1263961791992	-948.975341796875	1349.680053710938	53.33675003051758	-949.9605712890625	1131.908813476562	50.27426528930664	-976.5903930664062	1121.211303710938	134.4186096191406	-826.0792846679688	906.1312866210938	63.94832611083984	-914.5778198242188	878.6041259765625	47.99635696411133	-937.8614501953125	1020.1083984375	40.34146118164062	-790.7122192382812	723.5386962890625	82.20635223388672	-887.6483154296875	810.3699340820312	48.53765869140625	-816.7314453125	827.916748046875	43.85717010498047	-856.384521484375	1516.384887695312	468.7901000976562	-873.1281127929688	1454.057861328125	543.5978393554688	-898.1687622070312	1169.229125976562	612.9912109375	-912.8781127929688	1156.5224609375	515.971923828125	-769.164306640625	936.4462280273438	594.5175170898438	-840.1639404296875	923.8953857421875	646.5161743164062	-874.63720703125	1096.875	632.423095703125	-763.5789184570312	747.4832763671875	576.8759765625	-745.906494140625	841.4664916992188	605.4281616210938	-816.55810546875	839.9337768554688	644.6091918945312	-873.2853393554688	1696.125244140625	358.8402404785156	-740.1316528320312	1735.921630859375	190.6051940917969	-710.9816284179688	1746.317749023438	316.9140930175781	-910.3426513671875	1692.636474609375	225.8812103271484	-922.3318481445312	1016.765014648438	139.3380126953125	-835.6834106445312	1012.790954589844	504.7980041503906	-759.8638916015625	1043.220092773438	442.4338684082031	-791.1827392578125	1046.086669921875	186.3861541748047	-759.5088500976562	526.6737060546875	130.443359375	-802.5800170898438	668.8662109375	114.5463943481445	-859.196533203125	53.15103530883789	134.2632751464844	-811.2791748046875	296.3915405273438	117.9349365234375	-648.4029541015625	80.11882781982422	104.3579025268555	-681.5712280273438	72.952392578125	163.2811126708984	-763.1168212890625	49.05883407592773	71.14168548583984	-891.8847045898438	56.02771377563477	214.8638153076172	-847.968994140625	512.7586669921875	454.8935546875	-971.9967041015625	32.8948860168457	430.0467224121094	-846.8299560546875	391.2275390625	432.2720031738281	-752.2825927734375	49.26166534423828	393.4395446777344	-804.9678955078125	45.74199295043945	348.7978515625	-858.23876953125	31.94732284545898	463.4606628417969	-1020.962585449219	34.76257705688477	362.1578979492188	-792.2830810546875	778.4989013671875	493.541015625	
